<?xml version="1.0" encoding="utf-8"?>
<!-- Generator: Adobe Illustrator 23.0.4, SVG Export Plug-In . SVG Version: 6.00 Build 0)  -->
<svg version="1.1" id="Ebene_1" xmlns="http://www.w3.org/2000/svg" xmlns:xlink="http://www.w3.org/1999/xlink" x="0px" y="0px"
	 viewBox="0 0 88 95" style="enable-background:new 0 0 88 95;" xml:space="preserve">
<style type="text/css">
	.st0{fill:#2B2B2A;}
	.st1{clip-path:url(#SVGID_2_);fill:#2B2B2A;}
	.st2{clip-path:url(#SVGID_4_);fill:#2B2B2A;}
	.st3{clip-path:url(#SVGID_6_);fill:#2B2B2A;}
	.st4{clip-path:url(#SVGID_8_);fill:#2B2B2A;}
</style>
<polygon class="st0" points="76.3,1 76.3,16.98 76.19,16.98 66.7,1 54.37,1 54.37,37.29 65.31,37.29 65.31,19.71 65.42,19.71 
	75.82,37.29 87.23,37.29 87.23,1 "/>
<g>
	<defs>
		<rect id="SVGID_1_" x="1" y="1" width="86.23" height="93"/>
	</defs>
	<clipPath id="SVGID_2_">
		<use xlink:href="#SVGID_1_"  style="overflow:visible;"/>
	</clipPath>
	<path id="logost1" class="st1" d="M13.55,51.67H12.1v18.39h1.34c6.76,0,8.95-2.31,8.95-9.43C22.39,54.02,20.09,51.67,13.55,51.67 M13.87,79.06H1
		v-36.3h13.51c12.81,0,19.25,5.9,19.25,17.69C33.76,72.95,27.22,79.06,13.87,79.06"/>
</g>
<rect x="37.9" y="1" class="st0" width="11.1" height="78.06"/>
<polygon class="st0" points="54.31,42.77 54.31,51.77 71.22,51.77 53.41,70.11 53.41,79.06 87.24,79.06 87.24,70 68.39,70 
	86.14,51.99 86.14,42.77 "/>
<g>
	<defs>
		<rect id="SVGID_3_" x="1" y="1" width="86.23" height="93"/>
	</defs>
	<clipPath id="SVGID_4_">
		<use xlink:href="#SVGID_3_"  style="overflow:visible;"/>
	</clipPath>
	<path class="st2" d="M3.86,93c0.29,0.05,0.71,0.07,1.16,0.07c2.44,0,3.77-1.36,3.77-3.75c0.01-2.09-1.17-3.41-3.58-3.41
		c-0.59,0-1.04,0.05-1.34,0.12V93z M2.72,85.18C3.41,85.08,4.24,85,5.15,85c1.64,0,2.81,0.38,3.58,1.1
		c0.79,0.72,1.25,1.75,1.25,3.18c0,1.44-0.45,2.63-1.27,3.44c-0.83,0.83-2.19,1.27-3.91,1.27c-0.81,0-1.5-0.04-2.07-0.1V85.18z"/>
</g>
<rect x="18.16" y="85.06" class="st0" width="1.14" height="8.85"/>
<g>
	<defs>
		<rect id="SVGID_5_" x="1" y="1" width="86.23" height="93"/>
	</defs>
	<clipPath id="SVGID_6_">
		<use xlink:href="#SVGID_5_"  style="overflow:visible;"/>
	</clipPath>
	<path class="st3" d="M34.73,93.51C34.22,93.7,33.21,94,32.01,94c-1.34,0-2.44-0.34-3.31-1.17c-0.76-0.73-1.23-1.92-1.23-3.29
		c0.01-2.64,1.82-4.57,4.79-4.57c1.02,0,1.82,0.22,2.2,0.41l-0.28,0.93c-0.47-0.21-1.06-0.38-1.96-0.38c-2.15,0-3.56,1.34-3.56,3.56
		c0,2.24,1.35,3.57,3.41,3.57c0.75,0,1.26-0.11,1.52-0.24v-2.64h-1.8v-0.92h2.91V93.51z"/>
</g>
<rect x="43.18" y="85.06" class="st0" width="1.14" height="8.85"/>
<polygon class="st0" points="52,85.06 52,86.03 54.69,86.03 54.69,93.91 55.85,93.91 55.85,86.03 58.55,86.03 58.55,85.06 "/>
<g>
	<defs>
		<rect id="SVGID_7_" x="1" y="1" width="86.23" height="93"/>
	</defs>
	<clipPath id="SVGID_8_">
		<use xlink:href="#SVGID_7_"  style="overflow:visible;"/>
	</clipPath>
	<path class="st4" d="M69.58,90.23l-0.87-2.55c-0.2-0.58-0.33-1.1-0.46-1.61h-0.03c-0.13,0.53-0.27,1.06-0.45,1.6l-0.87,2.56H69.58z
		 M66.68,91.13l-0.92,2.78h-1.18l3.01-8.85h1.38l3.02,8.85h-1.22l-0.95-2.78H66.68z"/>
</g>
<polygon class="st0" points="79.99,85.06 79.99,93.91 84.91,93.91 84.91,92.95 81.13,92.95 81.13,85.06 "/>
</svg>
