<?xml version="1.0" encoding="utf-8"?>
<!-- Generator: Adobe Illustrator 26.0.3, SVG Export Plug-In . SVG Version: 6.00 Build 0)  -->
<svg version="1.1" id="Ebene_1" xmlns="http://www.w3.org/2000/svg" xmlns:xlink="http://www.w3.org/1999/xlink" x="0px" y="0px"
	 viewBox="0 0 16 16" style="enable-background:new 0 0 16 16;" xml:space="preserve">
<path d="M9,9H3.5C3.2,9,3,8.8,3,8.5v-1C3,7.2,3.2,7,3.5,7h5.9"/>
<path d="M9,7h3.5C12.8,7,13,7.2,13,7.5v1C13,8.8,12.8,9,12.5,9H9"/>
<path d="M9,5.6H3.5C3.2,5.6,3,5.4,3,5.1v-1c0-0.3,0.2-0.5,0.5-0.5h5.9"/>
<path d="M9,3.6h3.5c0.3,0,0.5,0.2,0.5,0.5v1c0,0.3-0.2,0.5-0.5,0.5H9"/>
<path d="M9,12.4H3.5c-0.3,0-0.5-0.2-0.5-0.5v-1c0-0.3,0.2-0.5,0.5-0.5h5.9"/>
<path d="M9,10.4h3.5c0.3,0,0.5,0.2,0.5,0.5v1c0,0.3-0.2,0.5-0.5,0.5H9"/>
</svg>
