<?xml version="1.0" encoding="utf-8"?>
<!-- Generator: Adobe Illustrator 26.0.3, SVG Export Plug-In . SVG Version: 6.00 Build 0)  -->
<svg version="1.1" id="Ebene_1" xmlns="http://www.w3.org/2000/svg" xmlns:xlink="http://www.w3.org/1999/xlink" x="0px" y="0px"
	 viewBox="0 0 16 16" style="enable-background:new 0 0 16 16;" xml:space="preserve">
<path d="M8.7,12.7l-1.4-1.4L4.8,8.8c-0.2-0.2-0.2-0.5,0-0.7l0.7-0.7c0.2-0.2,0.5-0.2,0.7,0l2.5,2.5l2.5-2.5c0.2-0.2,0.5-0.2,0.7,0
	l0.7,0.7c0.2,0.2,0.2,0.5,0,0.7l-2.5,2.5"/>
<path d="M9.4,10L9.4,10"/>
<path d="M2.2,4.9h2H10c0.3,0,0.5,0.2,0.5,0.5l0.4,0.9c2.8,0.1-0.6,0.6-0.9,0.6H4.2v3.5c0,0.3-0.2,0.5-0.5,0.5h-1
	c-0.3,0-0.5-0.2-0.5-0.5V6.9"/>
<path d="M2.2,14.8v-2V9.3c0-0.3,0.2-0.5,0.5-0.5h1C4,8.8,4.2,9,4.2,9.3v3.5H10c0.3,0,1.3,0.5,1.3,0.8L11,14.3c0,0.3,0.1,0.5-0.2,0.5
	H4.1"/>
<path d="M15.1,14.8h-2H9.6c-0.3,0-0.5-0.2-0.5-0.5v-1c0-0.3,0.2-0.5,0.5-0.5h3.5V9.3c0-0.3,0.2-0.5,0.5-0.5h1c0.3,0,0.5,0.2,0.5,0.5
	v3.5"/>
<path d="M15.1,4.9v2v3.5c0,0.3-0.2,0.5-0.5,0.5h-1c-0.3,0-0.5-0.2-0.5-0.5V6.9H9.6c-0.3,0-0.5-0.2-0.5-0.5v-1c0-0.3,0.2-0.5,0.5-0.5
	h3.5"/>
<path d="M4.6,5.3c-0.2,0.2,0,0.4-0.2,0.2L3.4,6C3.2,5.8,2,5.1,2.2,4.9l0,0"/>
<path d="M15.1,4.9L14.7,5c0.2,0.2,0.1,1.3-1.3,0.4v0.5c-0.2,0.2-0.5-0.3-0.7-0.5"/>
</svg>
